<svg width="1920" height="128" viewBox="0 0 1920 128" fill="none" xmlns="http://www.w3.org/2000/svg">
<path d="M0 128L1920 128C1920 128 1919.98 111.161 1919.98 109.821C1916.69 108.959 1913.32 108.608 1909.96 108.777C1875.21 111.934 1840.46 110.221 1805.76 107.707C1765.54 104.795 1725.38 99.4058 1685.17 96.1131C1659.17 93.9842 1633.18 91.5182 1607.14 90.3624C1574.77 88.9247 1542.44 89.5738 1510.12 91.3093C1493.19 92.2202 1476.21 91.9405 1459.28 94.6525C1450.71 96.0246 1442.01 94.8905 1433.32 94.1544C1438.49 91.5448 1443.97 93.025 1448.99 87.6437C1451.66 84.7857 1455.85 86.4465 1459.41 88.1038C1463.32 89.9314 1467.46 91.5138 1471.09 86.0428C1471.49 85.4447 1472.23 84.8791 1472.65 85.1367C1481.55 90.5835 1490.27 85.5091 1499.06 84.0576C1500.46 83.7729 1501.9 84.1132 1503.1 85.009C1506.58 87.8842 1509.94 87.2998 1513.41 85.2135C1514.46 84.5043 1515.65 84.1375 1516.86 84.1522C1533.42 85.6773 1550 84.3474 1566.56 84.6809C1574.36 84.8385 1582.53 84.6881 1590.51 82.6904C1595.06 81.5507 1599.9 80.834 1604.49 84.4154C1610.23 88.8824 1616 83.3712 1621.81 83.9555C1641.23 85.9245 1660.66 87.5116 1680.14 87.6462C1668.63 85.9739 1657.13 83.6852 1645.59 82.7524C1613.89 80.1831 1582.15 79.164 1550.41 79.1192C1535.89 79.0985 1521.36 80.1002 1506.85 80.2532C1484.16 80.4855 1461.47 79.2807 1438.89 76.6442C1436 76.3084 1433.05 78.3694 1430.07 76.0888C1430.08 72.8409 1432.02 73.017 1433 69.4701C1410.61 70.6823 1388.65 68.8359 1365.93 67.9066C1367.35 72.7853 1368.91 71.242 1369.79 72.7843C1369.55 73.1075 1369.28 73.7608 1369.06 73.716C1365.75 73.0995 1361.48 77.7409 1359.74 68.2894C1359.64 67.7143 1358.69 67.2799 1358.16 67.3696C1346.74 69.2328 1335.39 64.698 1323.98 66.1299C1317.95 66.8866 1311.85 64.9327 1305.86 67.7746C1304.27 68.5279 1302.33 66.8212 1301.24 70.6717C1300.68 72.6476 1299.24 72.2269 1298.76 70.7651C1296.42 63.5482 1292.6 66.185 1289.21 65.8008C1279.01 64.6358 1268.76 64.8393 1258.57 64.4587C1247.03 64.0308 1235.36 65.4453 1222.81 66.0319C1227 68.776 1230.74 65.6961 1233.97 70.0815C1229.28 73.0441 1224.39 72.2346 1219.54 71.5997C1217.98 71.395 1216.41 69.947 1214.92 70.2104C1206.11 71.7676 1197.68 67.7467 1189.19 64.8611C1188.33 64.6436 1187.45 64.6505 1186.6 64.8811C1185.74 65.1116 1184.95 65.5603 1184.27 66.1933C1175.96 74.6972 1166.9 68.928 1158.25 68.8901C1150.86 68.8579 1143.49 65.3469 1136.08 63.9852C1133.96 63.5964 1131.37 61.8668 1129.53 66.2855C1128.78 68.0912 1127.37 67.6597 1126.21 67.6321C1118.72 67.4561 1111.23 67.3314 1103.74 66.8979C1101.73 66.6386 1099.77 65.9571 1097.97 64.8874C1095.98 63.8523 1095.19 60.1644 1095.27 57.4202C1095.39 53.3949 1097.7 54.9533 1099.11 54.9015C1104 54.7232 1108.9 54.8337 1113.82 54.5416C1108.74 53.0465 1103.83 48.8266 1098.41 52.4713C1097.25 53.2107 1095.95 53.6128 1094.63 53.642C1093.3 53.6713 1092 53.327 1090.81 52.6394C1078.78 46.5013 1066.69 49.2084 1054.51 50.4735C1043.08 51.5016 1031.6 51.537 1020.17 50.5786C999.275 49.1168 978.366 47.4915 957.516 44.6714C926.444 40.4644 895.424 35.0555 864.372 30.3677C847.862 27.8754 831.308 26.241 814.816 23.4762C783.383 18.2053 751.842 16.2696 720.332 13.4599C704.779 12.0729 689.166 12.4387 673.583 12.4387C647.941 12.4387 622.296 12.471 596.657 13.0817C576.74 13.5556 556.827 14.8171 536.922 15.9511C525.877 16.5814 514.846 17.6465 503.802 18.5528C500.654 18.8127 497.654 17.6323 494.652 16.1637C500.094 13.7416 505.613 13.5772 511.089 12.6583C527.337 9.93373 543.639 11.3187 559.902 11.1381C563.598 11.0979 566.186 7.58763 569.645 7.06664C577.12 5.94184 584.094 12.2927 591.494 9.84873C593.54 9.17247 595.342 9.12057 597.41 6.93653C601.236 2.89968 605.762 4.4928 610.028 6.61819C614.117 8.65156 618.277 11.0421 622.115 5.21571C622.393 4.79478 622.978 4.27405 623.156 4.49027C627.766 10.0901 632.446 5.99241 637.178 5.46912C638.812 5.28855 640.481 5.1114 642.16 4.90783C646.741 4.35233 651.35 2.15539 655.872 7.29864C658.056 9.78285 661.24 8.97905 663.905 7.07563C664.811 6.42927 665.879 4.45356 666.49 4.8699C677.523 12.4054 689.255 -1.98357 700.153 8.36503C700.324 8.52719 700.579 8.79621 700.695 8.6858C708.679 1.13999 716.956 15.3321 725.237 7.34119C727.776 4.89263 731.629 9.05728 735.214 8.72836C743.306 7.98194 751.572 6.83329 759.507 12.0041C764.525 15.2727 769.371 9.63473 774.615 11.1425C791.483 15.9982 808.656 15.4979 825.628 18.8298C827.451 19.1789 829.323 18.8222 830.951 17.8154C819.221 15.506 807.514 12.6892 795.757 10.9813C761.753 6.03585 727.651 3.91633 693.568 1.58852C675.288 0.339515 656.953 2.49701 638.648 2.18993C620.773 1.89206 602.903 2.19035 585.03 2.36746C580.868 2.40772 576.876 5.94277 572.73 4.25098C555.075 -2.94175 537.306 0.915803 519.555 2.0659C513.248 2.47649 506.924 1.97043 500.608 1.99343C477.293 2.08084 454.131 6.70868 430.908 9.49538C417.723 11.0779 404.544 12.8766 391.371 14.8915C371.334 17.9439 351.315 21.2172 331.284 24.4674C303.031 29.0506 274.907 35.8039 246.662 40.6401C235.075 42.6263 223.393 40.3973 211.909 44.4353C209.263 45.3646 206.342 44.0444 204.209 48.3458C202.206 52.385 200.62 44.8957 198.369 47.7468C191.193 56.8326 182.524 54.8256 174.542 56.0781C159.971 58.3622 145.309 59.1027 130.72 61.4696C101.654 66.1873 72.5856 70.8594 43.5146 75.4859C31.1701 77.4491 18.8226 79.2652 5.64893 81.2755C9.35688 85.6724 12.4835 87.1161 16.0316 84.196C17.2952 83.154 18.6069 82.1497 19.9994 83.3286C20.5735 83.6795 21.0463 84.2154 21.3601 84.8709C21.6739 85.5263 21.815 86.2731 21.7662 87.0195C21.7103 88.9505 20.7675 89.1425 20.0682 89.2955C13.6113 90.6905 5.76072 95.807 0 92.8237V128ZM1452.29 81.4377C1452.31 82.2566 1452.32 83.0778 1452.34 83.8966L1435.96 83.8966C1441.9 78.2416 1447.1 80.0208 1452.29 81.4377ZM1417.13 92.8444C1416.59 92.9525 1416.01 92.6545 1416.01 91.4917C1416.01 91.1743 1416.6 90.8489 1417.04 90.3981C1417.37 90.8915 1417.73 91.4426 1418.09 91.9912C1417.77 92.2891 1417.46 92.7742 1417.13 92.8444ZM1421.72 92.7101C1423.74 88.2247 1423.74 88.2245 1427.23 92.2096C1426.44 92.8693 1425.51 93.2648 1424.54 93.3531C1423.56 93.4414 1422.59 93.2192 1421.72 92.7101ZM1431.72 84.3429L1431.11 84.2532C1431.31 84.2762 1431.51 84.3003 1431.71 84.321L1431.72 84.3429H1431.72ZM1416.64 74.5467C1417 74.5706 1417.36 74.6758 1417.7 74.857L1416.95 75.608C1416.6 75.5079 1416.25 75.3871 1415.91 75.2629C1416.15 75.0099 1416.39 74.582 1416.64 74.544L1416.64 74.5467ZM1428.97 83.9942C1424.25 89.7309 1418.65 88.9973 1413.27 80.8638C1419.04 82.0139 1424.01 83.0028 1428.97 83.9942ZM1404.52 82.8628C1406.59 82.8226 1408.67 82.8548 1410.74 82.8548C1409.1 86.1602 1406.45 81.6872 1405.48 87.7804C1405.22 89.4538 1404.25 87.5953 1403.91 85.6194C1403.61 83.8943 1402.97 82.8925 1404.52 82.8592V82.8628ZM1388.42 85.2101C1386.22 86.4649 1384 86.6696 1382.03 85.2101H1388.42ZM1372.67 84.2408C1368.94 87.9314 1324.87 88.0358 1317.84 84.7833C1335.73 79.1662 1353.59 86.6146 1372.67 84.2408ZM1294.44 70.393C1294.5 70.3723 1294.62 70.9222 1294.72 71.2074C1294.41 71.444 1294.08 71.6471 1293.74 71.8137C1293.63 71.5428 1293.55 71.2587 1293.49 70.9669C1293.78 70.7334 1294.1 70.5415 1294.44 70.393ZM1265.08 70.079C1265.15 69.9169 1265.43 70.0562 1265.62 70.0562C1265.7 70.277 1265.89 70.631 1265.85 70.7816C1265.78 71.0346 1265.56 71.3225 1265.41 71.3098C1264.88 71.265 1264.75 70.7576 1265.08 70.079ZM1297.36 83.5827C1273.02 88.0577 1248.75 83.0617 1224.57 82.1899C1248.95 79.3446 1273.17 80.9524 1297.36 83.5827ZM1208.08 78.2921C1208.44 78.6532 1209.23 79.0282 1209.27 79.5722C1209.36 80.7522 1208.71 81.1053 1208.1 80.919C1207.93 80.8903 1207.76 80.8208 1207.6 80.715C1207.45 80.6091 1207.32 80.469 1207.21 80.3028C1207.11 80.1365 1207.03 79.9477 1206.99 79.7473C1206.95 79.547 1206.94 79.3393 1206.97 79.1364C1206.99 78.8581 1207.59 78.6475 1208.08 78.2921ZM636.328 36.9314C645.787 36.0631 655.263 34.5272 664.598 39.1299C655.148 39.4323 645.659 41.6365 636.328 36.9314ZM842.916 46.517C822.505 48.4677 801.958 47.2298 781.836 42.8368C772.845 40.9185 763.727 40.8231 754.659 40.2147C745.794 39.6213 736.897 40.9046 728.062 38.4791C721.579 36.6941 715.061 37.8432 708.803 40.4895C703.283 42.8254 698.453 40.2412 693.25 38.278C687.836 36.2365 682.139 33.8708 676.613 38.1423C676.227 38.5261 675.745 38.7571 675.237 38.8008C674.729 38.8445 674.222 38.6986 673.792 38.385C660.783 29.2578 647.274 35.7397 634.013 34.8115C630.95 34.5965 627.847 33.9353 624.76 33.795C616.624 33.4177 608.544 32.0688 600.649 29.7697C681.612 25.9491 762.402 29.8454 842.916 46.5253V46.517ZM556.129 2.01654C556.395 2.38687 556.657 2.75665 556.914 3.12621C556.622 3.41719 556.324 3.95097 556.038 3.93142C555.778 3.91187 555.539 3.28948 555.283 2.9341L556.129 2.01411V2.01654ZM347.556 31.4878L332.949 33.3276L332.872 30.2699C337.727 28.553 342.965 28.9866 347.556 31.4878ZM29.4271 80.9638C33.3994 79.9695 37.4967 79.8274 41.5137 80.545C50.0673 81.0729 58.795 78.1967 67.5854 76.9638C68.9375 76.6771 70.3067 76.5117 71.6809 76.4684C72.3277 76.6661 72.9003 77.1023 73.3108 77.7108C73.7213 78.3194 73.947 79.0663 73.9532 79.8368C73.9595 80.6073 73.7459 81.3587 73.3453 81.9759C72.9448 82.5932 72.3796 83.0419 71.7361 83.2534C66.8904 84.8957 61.576 87.3203 57.1658 84.7809C50.494 80.9396 44.9441 85.7631 39.0205 87.9414C36.0029 89.0456 32.8666 89.661 29.7017 89.7699C28.1334 89.8297 26.1376 89.3298 26.0836 85.8738C26.0306 84.7279 26.3405 83.5984 26.9559 82.6958C27.5714 81.7932 28.4506 81.179 29.4301 80.9664" fill="#FAF7EA"/>
</svg>
