<svg width="1920" height="60" viewBox="0 0 1920 60" fill="none" xmlns="http://www.w3.org/2000/svg">
<path d="M0.150027 29.5519L-0.000971317 -0.000167852L1920 0L1920 34.3709C1918.78 34.4817 1917.58 34.6046 1916.36 34.736C1911.83 35.2168 1907.73 36.927 1903.06 37.3859C1890.08 38.6554 1877.04 39.2591 1864.06 41.3904C1847.63 44.0889 1830.73 44.4955 1814.09 46.6243C1800.69 48.3369 1787.1 48.3868 1773.61 50.2759C1755.92 52.765 1737.88 53.0754 1720.05 55.1799C1706.86 56.733 1693.39 55.2164 1680.09 56.7197C1666.86 58.2229 1653.44 57.1627 1640.17 59.0481C1633.91 60.0397 1627.55 59.7691 1621.36 58.2472C1616.48 56.7141 1611.4 56.4122 1606.43 57.3599C1598.3 59.032 1590.06 59.6526 1581.83 59.2112C1574.04 58.9155 1566.29 60.6402 1558.5 59.2234C1557.39 58.9944 1556.24 59.2707 1555.29 60C1556.2 56.4701 1558.82 55.6497 1562.71 55.6011C1566.74 55.539 1570.32 56.8584 1574.11 57.3757C1583.38 58.6197 1591.68 54.3693 1600.57 53.3712C1606.1 53.5805 1611.21 55.4404 1617.13 55.1312C1621.23 54.9219 1624.12 52.4084 1628.48 52.9135C1640.32 54.2938 1652.09 50.9417 1664.1 51.5089C1669.24 51.7523 1675.11 52.8892 1679.34 52.0384C1688.11 50.2759 1697.01 49.1792 1706.79 47.676C1698.79 45.2732 1691.94 47.3923 1684.98 47.6638C1665.9 48.3941 1646.91 50.1651 1627.84 50.9173C1620.94 51.1887 1614.02 50.9417 1607.1 51.0902C1604.69 51.1522 1601.99 50.8565 1600.22 52.9756C1584.12 53.32 1568.01 52.6311 1551.88 54.1088C1537.48 55.4148 1522.96 54.0601 1508.42 55.5134C1493.18 57.0288 1477.71 54.934 1462.29 56.4872C1447.22 57.9904 1432.05 55.5755 1416.8 56.2778C1402.18 56.9679 1387.41 55.2919 1372.64 55.5633C1358.22 55.8347 1343.8 54.3193 1329.36 53.7643C1300.2 52.655 1271.05 51.3242 1241.89 49.7719C1222.45 48.7146 1203.01 47.8425 1183.56 46.9697L1183.4 46.9626C1177.87 46.7192 1172.3 45.3608 1166.87 45.7552C1147.56 47.172 1128.4 44.2641 1109.03 45.188C1093.06 45.9524 1076.94 43.9805 1060.79 45.5203C1049.84 46.567 1038.68 46.5427 1027.7 47.2328C1021.34 47.6272 1015.55 47.6893 1009.58 46.001C1006.9 45.1147 1004.08 45.0553 1001.38 45.8282C994.63 48.2808 988.52 45.5202 982.162 44.8179C989.421 44.6962 996.68 45.0151 1004.08 44.3128C1003.91 40.4555 1001.99 38.5336 997.858 38.1271C991.903 37.5395 985.919 37.5188 979.96 38.065C972.396 38.7308 964.874 39.769 957.363 40.4056C949.134 41.1201 940.849 38.7916 932.316 38.8233C923.63 38.8598 914.805 38.872 906.063 38.4046C903.841 38.238 901.625 38.828 899.663 40.1086C895.438 42.8436 889.453 42.8436 885.713 41.3782C881.82 39.8506 878.329 39.8128 874.588 39.5791C868.853 39.214 863.131 39.6534 857.368 38.5445C851.866 37.4942 846.233 38.2908 841.076 40.8487C841.832 41.5416 842.717 41.9964 843.652 42.1727C844.588 42.3489 845.544 42.2412 846.437 41.8589C845.342 44.7303 842.516 43.3135 840.757 43.1528C829.05 42.1304 817.459 44.3359 805.638 43.8831C796.314 43.518 786.464 44.0925 776.85 44.37C772.887 44.4808 768.413 45.6882 765.698 41.4865C765.098 40.5626 763.758 40.7842 762.705 41.5729C757.857 45.1709 751.872 45.6517 746.039 45.5154C730.177 45.1332 714.328 45.6882 698.479 45.8111C696.125 45.8355 694.074 46.4027 693.063 43.507C692.481 41.8431 683.964 41.4487 682.564 42.6817C683.312 43.9513 685.864 42.5089 686.291 45.2074C660.523 47.1671 634.742 44.0742 608.724 47.6844C609.541 45.0479 612.034 45.306 611.951 43.1504C602.323 43.2855 592.708 40.772 583.232 42.1644C572.606 43.7297 562.106 43.0518 551.549 42.8181C545.384 42.6963 539.316 42.4237 533.051 42.7694C503.196 44.4211 473.299 45.7271 443.404 46.3309C428.705 46.6145 414.02 45.8501 399.252 46.6753C385.134 47.4762 370.893 46.2444 356.665 46.5402C344.072 46.7995 331.423 44.9019 318.526 43.9281C320.366 43.2196 322.318 43.0589 324.22 43.4595C344.308 45.3327 364.479 43.4595 384.613 44.4576C396.943 45.0662 409.481 44.7534 421.797 44.2482C431.342 43.8417 441.695 47.094 450.807 41.7104C451.597 41.254 453.065 41.6982 454.215 41.7226C465.685 41.9198 477.151 42.1226 488.611 42.3312C489.754 42.511 490.912 42.4777 492.046 42.2326C501.3 38.4252 511.444 42.5162 520.807 39.6205C522.613 39.2056 524.48 39.5171 526.127 40.5078C528.046 41.4644 530.162 41.6669 532.181 41.0872C542.045 38.5615 551.853 36.2452 562.133 39.3247C562.773 39.4137 563.419 39.231 563.961 38.8074C567.647 35.493 572.149 36.8977 576.319 37.292C578.748 37.514 581.184 37.5758 583.618 37.477C591.861 37.1934 599.052 32.4622 607.475 33.3386C608.043 33.3873 608.167 32.8517 607.018 32.2541C597.919 32.87 588.149 31.7733 578.257 33.498C563.087 36.1479 547.46 33.8559 532.138 36.2209C518.077 38.3777 503.724 36.9232 489.497 38.4021C474.673 39.9418 459.614 39.4744 444.653 40.3496C429.554 41.2491 414.382 39.881 399.158 40.8912C383.171 41.9636 367.045 40.2011 350.919 40.7184C338.12 41.1371 325.29 39.7568 312.35 40.0161C296.367 40.3408 280.261 39.6705 264.251 39.0043L261.327 38.8829C240.851 38.0454 220.375 37.9955 199.914 37.5026C177.831 36.9609 155.719 37.1447 133.621 37.1204C107.299 37.096 81.088 38.7222 54.8069 38.9936C53.0071 39.018 51.2073 39.4987 49.3905 39.7239C40.1226 40.8949 20.3378 40.2412 14.4774 32.3429C13.8457 31.45 13.0601 30.7375 12.1764 30.2561C11.2927 29.7748 10.3328 29.5364 9.36487 29.558C6.71021 29.5714 7.46924 29.4386 7.8534 29.3895C7.61658 29.4139 7.08191 29.4656 6.02722 29.558C4.91065 29.6354 3.79126 29.6354 2.67469 29.558C1.55811 29.4806 0.150027 29.5519 0.150027 29.5519Z" fill="#00764F"/>
</svg>
